<svg width="213" height="52" viewBox="0 0 213 52" fill="none" xmlns="http://www.w3.org/2000/svg">
<g clip-path="url(#clip0_110_150)">
<path d="M22.1639 11.9984L28.9998 19.2641L35.8358 11.9984H22.1639ZM38.9921 14.1156L33.3358 20.1235H43.414L38.9921 14.1156ZM42.8983 23.8735H28.9998H15.1013L28.9998 39.2095L42.8983 23.8735ZM14.5857 20.1235H24.6639L19.0076 14.1156L14.5857 20.1235ZM48.5155 23.2563L30.3905 43.2564C30.0389 43.647 29.5311 43.8736 28.9998 43.8736C28.4686 43.8736 27.9686 43.647 27.6092 43.2564L9.4841 23.2563C8.88254 22.5922 8.83566 21.6 9.36691 20.8813L18.117 9.00623C18.4685 8.52966 19.031 8.2406 19.6248 8.2406H38.3749C38.9686 8.2406 39.5311 8.52185 39.8827 9.00623L48.6327 20.8813C49.164 21.6 49.1093 22.5922 48.5155 23.2563Z" fill="#DF617F"/>
</g>
<path d="M61.872 34.74C60.8 34.74 59.808 34.532 58.896 34.116C58 33.7 57.264 33.1 56.688 32.316L58.464 30.18C58.928 30.82 59.432 31.3 59.976 31.62C60.536 31.94 61.144 32.1 61.8 32.1C63.544 32.1 64.416 31.068 64.416 29.004V20.316H58.44V17.7H67.536V28.836C67.536 30.82 67.048 32.3 66.072 33.276C65.112 34.252 63.712 34.74 61.872 34.74ZM78.1282 34.668C76.7042 34.668 75.4562 34.388 74.3842 33.828C73.3282 33.252 72.5042 32.468 71.9122 31.476C71.3362 30.484 71.0482 29.356 71.0482 28.092C71.0482 26.812 71.3282 25.684 71.8882 24.708C72.4642 23.716 73.2482 22.94 74.2402 22.38C75.2482 21.82 76.3922 21.54 77.6722 21.54C78.9202 21.54 80.0322 21.812 81.0082 22.356C81.9842 22.9 82.7522 23.668 83.3123 24.66C83.8723 25.652 84.1523 26.82 84.1523 28.164C84.1523 28.292 84.1443 28.436 84.1282 28.596C84.1282 28.756 84.1202 28.908 84.1042 29.052H73.4242V27.06H82.5203L81.3442 27.684C81.3602 26.948 81.2083 26.3 80.8882 25.74C80.5683 25.18 80.1283 24.74 79.5682 24.42C79.0243 24.1 78.3923 23.94 77.6722 23.94C76.9362 23.94 76.2882 24.1 75.7282 24.42C75.1842 24.74 74.7522 25.188 74.4322 25.764C74.1282 26.324 73.9762 26.988 73.9762 27.756V28.236C73.9762 29.004 74.1522 29.684 74.5042 30.276C74.8562 30.868 75.3522 31.324 75.9922 31.644C76.6322 31.964 77.3682 32.124 78.2003 32.124C78.9202 32.124 79.5682 32.012 80.1443 31.788C80.7202 31.564 81.2322 31.212 81.6803 30.732L83.2883 32.58C82.7123 33.252 81.9843 33.772 81.1042 34.14C80.2403 34.492 79.2483 34.668 78.1282 34.668ZM90.1116 34.5L85.4076 21.684H88.2396L92.2716 32.988H90.9276L95.1516 21.684H97.6716L101.776 32.988H100.456L104.608 21.684H107.272L102.544 34.5H99.6636L95.9196 24.492H96.8076L92.9916 34.5H90.1116ZM115.487 34.668C114.063 34.668 112.815 34.388 111.743 33.828C110.687 33.252 109.863 32.468 109.271 31.476C108.695 30.484 108.407 29.356 108.407 28.092C108.407 26.812 108.687 25.684 109.247 24.708C109.823 23.716 110.607 22.94 111.599 22.38C112.607 21.82 113.751 21.54 115.031 21.54C116.279 21.54 117.391 21.812 118.367 22.356C119.343 22.9 120.111 23.668 120.671 24.66C121.231 25.652 121.511 26.82 121.511 28.164C121.511 28.292 121.503 28.436 121.487 28.596C121.487 28.756 121.479 28.908 121.463 29.052H110.783V27.06H119.879L118.703 27.684C118.719 26.948 118.567 26.3 118.247 25.74C117.927 25.18 117.487 24.74 116.927 24.42C116.383 24.1 115.751 23.94 115.031 23.94C114.295 23.94 113.647 24.1 113.087 24.42C112.543 24.74 112.111 25.188 111.791 25.764C111.487 26.324 111.335 26.988 111.335 27.756V28.236C111.335 29.004 111.511 29.684 111.863 30.276C112.215 30.868 112.711 31.324 113.351 31.644C113.991 31.964 114.727 32.124 115.559 32.124C116.279 32.124 116.927 32.012 117.503 31.788C118.079 31.564 118.591 31.212 119.039 30.732L120.647 32.58C120.071 33.252 119.343 33.772 118.463 34.14C117.599 34.492 116.607 34.668 115.487 34.668ZM124.872 34.5V16.692H127.872V34.5H124.872ZM136.25 34.668C135.178 34.668 134.146 34.532 133.154 34.26C132.178 33.972 131.402 33.628 130.826 33.228L131.978 30.948C132.554 31.316 133.242 31.62 134.042 31.86C134.842 32.1 135.642 32.22 136.442 32.22C137.386 32.22 138.066 32.092 138.482 31.836C138.914 31.58 139.13 31.236 139.13 30.804C139.13 30.452 138.986 30.188 138.698 30.012C138.41 29.82 138.034 29.676 137.57 29.58C137.106 29.484 136.586 29.396 136.01 29.316C135.45 29.236 134.882 29.132 134.306 29.004C133.746 28.86 133.234 28.66 132.77 28.404C132.306 28.132 131.93 27.772 131.642 27.324C131.354 26.876 131.21 26.284 131.21 25.548C131.21 24.732 131.442 24.028 131.906 23.436C132.37 22.828 133.018 22.364 133.85 22.044C134.698 21.708 135.698 21.54 136.85 21.54C137.714 21.54 138.586 21.636 139.466 21.828C140.346 22.02 141.074 22.292 141.65 22.644L140.498 24.924C139.89 24.556 139.274 24.308 138.65 24.18C138.042 24.036 137.434 23.964 136.826 23.964C135.914 23.964 135.234 24.1 134.786 24.372C134.354 24.644 134.138 24.988 134.138 25.404C134.138 25.788 134.282 26.076 134.57 26.268C134.858 26.46 135.234 26.612 135.698 26.724C136.162 26.836 136.674 26.932 137.234 27.012C137.81 27.076 138.378 27.18 138.938 27.324C139.498 27.468 140.01 27.668 140.474 27.924C140.954 28.164 141.338 28.508 141.626 28.956C141.914 29.404 142.058 29.988 142.058 30.708C142.058 31.508 141.818 32.204 141.338 32.796C140.874 33.388 140.21 33.852 139.346 34.188C138.482 34.508 137.45 34.668 136.25 34.668ZM151.001 34.668C149.657 34.668 148.457 34.388 147.401 33.828C146.361 33.252 145.545 32.468 144.953 31.476C144.361 30.484 144.065 29.356 144.065 28.092C144.065 26.812 144.361 25.684 144.953 24.708C145.545 23.716 146.361 22.94 147.401 22.38C148.457 21.82 149.657 21.54 151.001 21.54C152.249 21.54 153.345 21.796 154.289 22.308C155.249 22.804 155.977 23.54 156.473 24.516L154.169 25.86C153.785 25.252 153.313 24.804 152.753 24.516C152.209 24.228 151.617 24.084 150.977 24.084C150.241 24.084 149.577 24.244 148.985 24.564C148.393 24.884 147.929 25.348 147.593 25.956C147.257 26.548 147.089 27.26 147.089 28.092C147.089 28.924 147.257 29.644 147.593 30.252C147.929 30.844 148.393 31.3 148.985 31.62C149.577 31.94 150.241 32.1 150.977 32.1C151.617 32.1 152.209 31.956 152.753 31.668C153.313 31.38 153.785 30.932 154.169 30.324L156.473 31.668C155.977 32.628 155.249 33.372 154.289 33.9C153.345 34.412 152.249 34.668 151.001 34.668ZM167.443 34.5V31.908L167.275 31.356V26.82C167.275 25.94 167.011 25.26 166.483 24.78C165.955 24.284 165.155 24.036 164.083 24.036C163.363 24.036 162.651 24.148 161.947 24.372C161.259 24.596 160.675 24.908 160.195 25.308L159.019 23.124C159.707 22.596 160.523 22.204 161.467 21.948C162.427 21.676 163.419 21.54 164.443 21.54C166.299 21.54 167.731 21.988 168.739 22.884C169.763 23.764 170.275 25.132 170.275 26.988V34.5H167.443ZM163.411 34.668C162.451 34.668 161.611 34.508 160.891 34.188C160.171 33.852 159.611 33.396 159.211 32.82C158.827 32.228 158.635 31.564 158.635 30.828C158.635 30.108 158.803 29.46 159.139 28.884C159.491 28.308 160.059 27.852 160.843 27.516C161.627 27.18 162.667 27.012 163.963 27.012H167.683V29.004H164.179C163.155 29.004 162.467 29.172 162.115 29.508C161.763 29.828 161.587 30.228 161.587 30.708C161.587 31.252 161.803 31.684 162.235 32.004C162.667 32.324 163.267 32.484 164.035 32.484C164.771 32.484 165.427 32.316 166.003 31.98C166.595 31.644 167.019 31.148 167.275 30.492L167.779 32.292C167.491 33.044 166.971 33.628 166.219 34.044C165.483 34.46 164.547 34.668 163.411 34.668ZM181.709 34.668C180.669 34.668 179.717 34.428 178.853 33.948C178.005 33.468 177.325 32.748 176.813 31.788C176.317 30.812 176.069 29.58 176.069 28.092C176.069 26.588 176.309 25.356 176.789 24.396C177.285 23.436 177.957 22.724 178.805 22.26C179.653 21.78 180.621 21.54 181.709 21.54C182.973 21.54 184.085 21.812 185.045 22.356C186.021 22.9 186.789 23.66 187.349 24.636C187.925 25.612 188.213 26.764 188.213 28.092C188.213 29.42 187.925 30.58 187.349 31.572C186.789 32.548 186.021 33.308 185.045 33.852C184.085 34.396 182.973 34.668 181.709 34.668ZM174.605 39.156V21.684H177.461V24.708L177.365 28.116L177.605 31.524V39.156H174.605ZM181.373 32.1C182.093 32.1 182.733 31.94 183.293 31.62C183.869 31.3 184.325 30.836 184.661 30.228C184.997 29.62 185.165 28.908 185.165 28.092C185.165 27.26 184.997 26.548 184.661 25.956C184.325 25.348 183.869 24.884 183.293 24.564C182.733 24.244 182.093 24.084 181.373 24.084C180.653 24.084 180.005 24.244 179.429 24.564C178.853 24.884 178.397 25.348 178.061 25.956C177.725 26.548 177.557 27.26 177.557 28.092C177.557 28.908 177.725 29.62 178.061 30.228C178.397 30.836 178.853 31.3 179.429 31.62C180.005 31.94 180.653 32.1 181.373 32.1ZM197.562 34.668C196.138 34.668 194.89 34.388 193.818 33.828C192.762 33.252 191.938 32.468 191.346 31.476C190.77 30.484 190.482 29.356 190.482 28.092C190.482 26.812 190.762 25.684 191.322 24.708C191.898 23.716 192.682 22.94 193.674 22.38C194.682 21.82 195.826 21.54 197.106 21.54C198.354 21.54 199.466 21.812 200.442 22.356C201.418 22.9 202.186 23.668 202.746 24.66C203.306 25.652 203.586 26.82 203.586 28.164C203.586 28.292 203.578 28.436 203.562 28.596C203.562 28.756 203.554 28.908 203.538 29.052H192.858V27.06H201.954L200.778 27.684C200.794 26.948 200.642 26.3 200.322 25.74C200.002 25.18 199.562 24.74 199.002 24.42C198.458 24.1 197.826 23.94 197.106 23.94C196.37 23.94 195.722 24.1 195.162 24.42C194.618 24.74 194.186 25.188 193.866 25.764C193.562 26.324 193.41 26.988 193.41 27.756V28.236C193.41 29.004 193.586 29.684 193.938 30.276C194.29 30.868 194.786 31.324 195.426 31.644C196.066 31.964 196.802 32.124 197.634 32.124C198.354 32.124 199.002 32.012 199.578 31.788C200.154 31.564 200.666 31.212 201.114 30.732L202.722 32.58C202.146 33.252 201.418 33.772 200.538 34.14C199.674 34.492 198.682 34.668 197.562 34.668Z" fill="#DF617F"/>
<defs>
<clipPath id="clip0_110_150">
<rect width="41" height="36" fill="white" transform="translate(8 8)"/>
</clipPath>
</defs>
</svg>
